<svg xmlns="http://www.w3.org/2000/svg" viewBox="0 0 200 80" fill="none">
  <!-- Tooth icon -->
  <path d="M 30 15 Q 25 10 20 15 Q 18 20 20 30 Q 22 40 25 45 Q 27 50 30 52 Q 33 50 35 45 Q 38 40 40 30 Q 42 20 40 15 Q 35 10 30 15 Z" fill="#4A9ECC" stroke="#4A9ECC" stroke-width="1"/>
  <path d="M 50 15 Q 45 10 40 15 Q 38 20 40 30 Q 42 40 45 45 Q 47 50 50 52 Q 53 50 55 45 Q 58 40 60 30 Q 62 20 60 15 Q 55 10 50 15 Z" fill="#4A9ECC" stroke="#4A9ECC" stroke-width="1"/>
  <!-- Sparkle -->
  <path d="M 35 20 L 37 22 L 35 24 L 33 22 Z" fill="white"/>
  <!-- Text -->
  <text x="70" y="35" font-family="Arial, sans-serif" font-size="18" font-weight="bold" fill="#2C5F7C">BRIGHTON DENTAL</text>
  <text x="70" y="52" font-family="Arial, sans-serif" font-size="10" fill="#4A9ECC">FAMILY DENTISTRY</text>
</svg>

