<svg width="1200" height="630" viewBox="0 0 1200 630" fill="none" xmlns="http://www.w3.org/2000/svg">
  <!-- Background -->
  <rect width="1200" height="630" fill="#0a0a0a"/>

  <defs>
    <radialGradient id="glow" cx="50%" cy="50%" r="60%" fx="50%" fy="50%">
      <stop offset="0%" stop-color="#8b5cf6" stop-opacity="0.15"/>
      <stop offset="100%" stop-color="#0a0a0a" stop-opacity="0"/>
    </radialGradient>
    <linearGradient id="fg" x1="0.3" y1="0" x2="0.7" y2="1">
      <stop offset="0%" stop-color="#C4B5FD"/>
      <stop offset="40%" stop-color="#8B5CF6"/>
      <stop offset="100%" stop-color="#4C1D95"/>
    </linearGradient>
    <linearGradient id="textGradient" x1="0%" y1="0%" x2="100%" y2="0%">
      <stop offset="0%" stop-color="#ffffff"/>
      <stop offset="50%" stop-color="#e5e5e5"/>
      <stop offset="100%" stop-color="#a3a3a3"/>
    </linearGradient>
    <linearGradient id="wordGrad" x1="0" y1="0" x2="1" y2="0">
      <stop offset="0%" stop-color="#F5F3FF"/>
      <stop offset="60%" stop-color="#E9E5F5"/>
      <stop offset="100%" stop-color="#C4B5FD"/>
    </linearGradient>
  </defs>

  <!-- Background glow -->
  <rect width="1200" height="630" fill="url(#glow)"/>

  <!-- Grid pattern (subtle) -->
  <pattern id="grid" width="50" height="50" patternUnits="userSpaceOnUse">
    <path d="M 50 0 L 0 0 0 50" fill="none" stroke="white" stroke-opacity="0.03" stroke-width="1"/>
  </pattern>
  <rect width="1200" height="630" fill="url(#grid)" opacity="0.5"/>

  <!-- Decorative feather icon (scaled up, left area) -->
  <g transform="translate(60, 140) scale(4)">
    <path d="M 40 50 C 24 14, 8 1, 2 8 C 12 32, 28 56, 40 50 Z" fill="url(#fg)" opacity="0.35"/>
    <line x1="3" y1="8" x2="38" y2="49" stroke="white" stroke-width="0.8" opacity="0.2"/>
    <line x1="9" y1="15" x2="13" y2="7" stroke="white" stroke-width="0.5" opacity="0.3"/>
    <line x1="15" y1="22" x2="20" y2="13" stroke="white" stroke-width="0.5" opacity="0.25"/>
    <line x1="21" y1="29" x2="26" y2="21" stroke="white" stroke-width="0.4" opacity="0.2"/>
    <line x1="28" y1="36" x2="32" y2="29" stroke="white" stroke-width="0.4" opacity="0.15"/>
  </g>

  <!-- Main headline -->
  <text x="600" y="240" text-anchor="middle" font-family="Inter, system-ui, sans-serif" font-size="72" font-weight="700" fill="white">
    Stop Missing Calls.
  </text>
  <text x="600" y="330" text-anchor="middle" font-family="Inter, system-ui, sans-serif" font-size="72" font-weight="700" fill="url(#textGradient)">
    Stop Losing Revenue.
  </text>

  <!-- Underline accent -->
  <rect x="280" y="340" width="640" height="6" rx="3" fill="#8b5cf6" opacity="0.5"/>

  <!-- Subheadline -->
  <text x="600" y="410" text-anchor="middle" font-family="Inter, system-ui, sans-serif" font-size="28" fill="#a3a3a3">
    AI Receptionist for Small Business · 24/7 Call Answering
  </text>

  <!-- Logo lockup at bottom -->
  <g transform="translate(460, 490)">
    <!-- Feather icon (no waveform) -->
    <g transform="scale(0.8)">
      <path d="M 38 50 C 22 14, 6 1, 0 8 C 10 32, 26 56, 38 50 Z" fill="url(#fg)"/>
      <line x1="1" y1="8" x2="36" y2="49" stroke="white" stroke-width="1" opacity="0.32"/>
      <line x1="7" y1="15" x2="11" y2="7" stroke="white" stroke-width="0.6" opacity="0.48"/>
      <line x1="13" y1="22" x2="18" y2="13" stroke="white" stroke-width="0.5" opacity="0.4"/>
      <line x1="19" y1="29" x2="24" y2="21" stroke="white" stroke-width="0.5" opacity="0.32"/>
    </g>
    <!-- Brand name -->
    <text x="48" y="34" font-family="Inter, system-ui, sans-serif">
      <tspan font-size="28" font-weight="600" fill="url(#wordGrad)" letter-spacing="-0.4">AutoQuill</tspan>
      <tspan font-size="28" font-weight="300" fill="#A78BFA" letter-spacing="2.4" dx="8">AI</tspan>
    </text>
    <!-- Waveform aligned under text -->
    <g transform="translate(48, 42)">
      <rect x="0" y="3" width="3" height="4" rx="1.5" fill="#7C3AED"/>
      <rect x="7" y="1.5" width="3" height="7" rx="1.5" fill="#7C3AED"/>
      <rect x="14" y="0" width="3" height="10" rx="1.5" fill="#7C3AED"/>
      <rect x="21" y="2.5" width="3" height="5" rx="1.5" fill="#8B5CF6"/>
      <rect x="28" y="0" width="3" height="10" rx="1.5" fill="#8B5CF6"/>
      <rect x="35" y="1.5" width="3" height="7" rx="1.5" fill="#8B5CF6"/>
      <rect x="42" y="0.5" width="3" height="9" rx="1.5" fill="#A78BFA"/>
      <rect x="49" y="3" width="3" height="4" rx="1.5" fill="#A78BFA"/>
      <rect x="56" y="1" width="3" height="8" rx="1.5" fill="#A78BFA"/>
      <rect x="63" y="2" width="3" height="6" rx="1.5" fill="#C4B5FD"/>
      <rect x="70" y="3" width="3" height="4" rx="1.5" fill="#C4B5FD"/>
      <rect x="77" y="3.5" width="3" height="3" rx="1.5" fill="#C4B5FD"/>
    </g>
  </g>

  <!-- Industry tags -->
  <g transform="translate(600, 460)" text-anchor="middle">
    <text font-family="Inter, system-ui, sans-serif" font-size="16" fill="#737373">
      Dentists · HVAC · Plumbers · Med Spas · Law Firms · Real Estate
    </text>
  </g>

  <!-- Corner accents -->
  <circle cx="1150" cy="50" r="100" fill="#8b5cf6" opacity="0.1"/>
  <circle cx="50" cy="580" r="80" fill="#8b5cf6" opacity="0.08"/>
</svg>
