<svg xmlns="http://www.w3.org/2000/svg" viewBox="0 0 44 54">
  <!-- AutoQuill AI — Icon Only (feather, no waveform) -->

  <defs>
    <linearGradient id="fg" x1="0.3" y1="0" x2="0.7" y2="1">
      <stop offset="0%" stop-color="#C4B5FD"/>
      <stop offset="40%" stop-color="#8B5CF6"/>
      <stop offset="100%" stop-color="#4C1D95"/>
    </linearGradient>
  </defs>

  <!-- Feather -->
  <path d="M 38 50 C 22 14, 6 1, 0 8 C 10 32, 26 56, 38 50 Z" fill="url(#fg)"/>
  <line x1="1" y1="8" x2="36" y2="49" stroke="white" stroke-width="1" opacity="0.32"/>

  <!-- Upper barbs -->
  <line x1="5" y1="13" x2="9" y2="6" stroke="white" stroke-width="0.55" opacity="0.48"/>
  <line x1="9" y1="18" x2="14" y2="10" stroke="white" stroke-width="0.55" opacity="0.44"/>
  <line x1="12" y1="22" x2="17" y2="13" stroke="white" stroke-width="0.5" opacity="0.4"/>
  <line x1="16" y1="26" x2="21" y2="18" stroke="white" stroke-width="0.5" opacity="0.36"/>
  <line x1="19" y1="30" x2="23" y2="22" stroke="white" stroke-width="0.5" opacity="0.32"/>
  <line x1="23" y1="34" x2="27" y2="27" stroke="white" stroke-width="0.5" opacity="0.26"/>
  <line x1="27" y1="38" x2="30" y2="32" stroke="white" stroke-width="0.4" opacity="0.2"/>
  <line x1="31" y1="43" x2="33" y2="37" stroke="white" stroke-width="0.4" opacity="0.15"/>

  <!-- Lower barbs -->
  <line x1="5" y1="14" x2="3" y2="22" stroke="white" stroke-width="0.4" opacity="0.2"/>
  <line x1="9" y1="19" x2="7" y2="27" stroke="white" stroke-width="0.4" opacity="0.18"/>
  <line x1="12" y1="23" x2="11" y2="32" stroke="white" stroke-width="0.4" opacity="0.15"/>
  <line x1="16" y1="27" x2="15" y2="35" stroke="white" stroke-width="0.4" opacity="0.12"/>
  <line x1="19" y1="31" x2="19" y2="39" stroke="white" stroke-width="0.35" opacity="0.1"/>
  <line x1="23" y1="35" x2="23" y2="43" stroke="white" stroke-width="0.35" opacity="0.08"/>
</svg>
